<?xml version="1.0" standalone="no"?>
<!DOCTYPE svg PUBLIC "-//W3C//DTD SVG 20010904//EN"
 "http://www.w3.org/TR/2001/REC-SVG-20010904/DTD/svg10.dtd">
<svg version="1.0" xmlns="http://www.w3.org/2000/svg"
 width="512.000000pt" height="512.000000pt" viewBox="0 0 512.000000 512.000000"
 preserveAspectRatio="xMidYMid meet">
<metadata>
Created by potrace 1.11, written by Peter Selinger 2001-2013
</metadata>
<g transform="translate(0.000000,512.000000) scale(0.100000,-0.100000)"
fill="#000000" stroke="none">
<path d="M2310 5089 c-660 -74 -1230 -370 -1668 -866 -297 -338 -495 -753
-581 -1218 -30 -159 -31 -180 -35 -390 -5 -260 14 -442 70 -670 26 -107 85
-286 109 -332 8 -15 15 -33 15 -40 0 -41 276 -519 319 -553 4 -3 17 -18 30
-35 64 -84 174 -201 281 -300 98 -90 123 -110 218 -178 48 -34 89 -64 92 -67
3 -3 16 -12 30 -19 14 -8 70 -41 125 -73 125 -73 385 -187 485 -213 8 -3 58
-16 110 -29 200 -53 389 -79 580 -80 l146 -1 55 33 c114 70 154 206 95 327
-54 109 -123 141 -326 149 -74 3 -153 9 -175 12 -96 14 -276 57 -374 90 -132
44 -394 171 -385 186 4 7 2 8 -4 4 -7 -4 -40 12 -74 35 -270 181 -470 393
-646 684 -40 66 -115 224 -146 309 -38 100 -90 295 -101 376 -3 25 -9 70 -13
100 -15 116 -5 531 14 561 2 3 5 21 8 40 18 136 91 354 175 524 207 416 530
737 943 935 180 85 433 166 518 165 14 0 27 3 30 7 10 12 100 19 295 23 214 4
300 -4 482 -44 350 -79 661 -246 961 -518 l53 -49 -114 -114 c-124 -125 -137
-143 -137 -190 0 -38 47 -90 82 -91 13 0 209 -1 435 -2 334 0 418 2 439 13 53
29 54 34 54 495 0 468 0 470 -60 495 -59 24 -86 9 -221 -126 l-126 -126 -24
29 c-26 30 -171 160 -229 205 -335 258 -717 428 -1120 497 -63 11 -131 23
-150 26 -56 10 -458 13 -540 4z"/>
<path d="M2519 4079 c-25 -4 -59 -14 -75 -22 -47 -24 -111 -101 -125 -149 -9
-32 -12 -215 -12 -723 -1 -671 0 -681 20 -725 27 -58 86 -114 142 -136 40 -16
88 -18 476 -18 l431 0 48 24 c199 96 200 366 1 460 -48 23 -56 24 -330 24
l-280 1 -1 535 c-1 520 -2 536 -22 580 -51 110 -155 167 -273 149z"/>
<path d="M4801 2808 c-99 -17 -182 -96 -200 -191 -8 -44 -21 -229 -23 -333 0
-37 44 -141 70 -161 74 -59 123 -77 206 -74 122 4 215 92 230 216 14 111 18
323 7 362 -33 122 -163 203 -290 181z"/>
<path d="M4558 1795 c-2 -3 -13 -6 -24 -8 -26 -4 -95 -46 -116 -72 -9 -11 -40
-63 -69 -115 -28 -52 -65 -114 -81 -138 -45 -65 -60 -111 -59 -175 1 -98 48
-174 136 -220 61 -32 164 -29 231 6 60 31 92 66 159 179 101 169 118 208 122
283 4 63 2 76 -24 125 -43 80 -120 130 -207 135 -35 2 -66 2 -68 0z"/>
<path d="M3745 898 c-16 -6 -61 -31 -99 -55 -101 -65 -322 -173 -406 -198 -49
-15 -97 -54 -131 -106 -32 -50 -34 -59 -34 -134 1 -89 14 -125 70 -180 74 -75
168 -93 277 -54 79 28 296 126 364 165 191 108 245 152 277 224 26 59 25 144
-4 205 -26 55 -98 121 -148 135 -46 13 -127 12 -166 -2z"/>
</g>
</svg>
